<?xml version="1.0" encoding="UTF-8"?>
<svg version="1.1" xmlns="http://www.w3.org/2000/svg" width="657" height="514">
<path d="M0 0 C216.81 0 433.62 0 657 0 C657 169.62 657 339.24 657 514 C440.19 514 223.38 514 0 514 C0 344.38 0 174.76 0 0 Z " fill="#FEFEFE" transform="translate(0,0)"/>
<path d="M0 0 C5.34061515 3.66624778 7.20094899 6.90321603 9 13 C9 13.66 9 14.32 9 15 C9.99 15 10.98 15 12 15 C12 14.34 12 13.68 12 13 C13.93252806 12.33943794 15.87141484 11.69747664 17.8125 11.0625 C19.43091797 10.52302734 19.43091797 10.52302734 21.08203125 9.97265625 C29.30615048 7.65630647 38.18427681 7.8481688 46.6640625 7.8671875 C48.10209732 7.86575241 48.10209732 7.86575241 49.56918335 7.86428833 C51.57069973 7.86361405 53.57221841 7.8654152 55.57373047 7.86962891 C58.65206693 7.87504765 61.7302614 7.86962833 64.80859375 7.86328125 C66.76041699 7.86394101 68.71224014 7.86522004 70.6640625 7.8671875 C71.5868399 7.86516327 72.50961731 7.86313904 73.46035767 7.86105347 C79.88501034 7.88501034 79.88501034 7.88501034 81 9 C83.68862664 9.39993686 86.36352217 9.75134543 89.0625 10.0625 C89.82111328 10.15337891 90.57972656 10.24425781 91.36132812 10.33789062 C93.2404301 10.5624374 95.12016095 10.78170978 97 11 C97 11.66 97 12.32 97 13 C97.61488281 13.13277344 98.22976562 13.26554687 98.86328125 13.40234375 C99.67152344 13.57894531 100.47976562 13.75554687 101.3125 13.9375 C102.11300781 14.11152344 102.91351563 14.28554687 103.73828125 14.46484375 C106 15 106 15 109 16 C109.165 15.154375 109.33 14.30875 109.5 13.4375 C111.60068574 8.62342852 114.60864231 5.83265052 119 3 C121.97550324 1.92249218 124.8712919 1.41231037 128 1 C128.804375 0.79375 129.60875 0.5875 130.4375 0.375 C137.44031465 -0.64980214 143.81036715 -0.78255341 150 3 C155.97511968 8.76757439 160.23261148 13.56419073 160.625 22.0625 C160.5539463 29.94057897 156.99462817 34.24313942 152 40 C151.34 40.99 150.68 41.98 150 43 C150.598125 43.268125 151.19625 43.53625 151.8125 43.8125 C154.07100952 45.03854802 155.47062652 45.93534581 157 48 C157.1875 50.6875 157.1875 50.6875 157 53 C157.94875 53.28875 158.8975 53.5775 159.875 53.875 C163 55 163 55 165 57 C164.625 59.125 164.625 59.125 164 61 C162.35 61.33 160.7 61.66 159 62 C159 62.66 159 63.32 159 64 C162.47889518 65.01967617 164.44792937 65.42819482 168 65 C170.80565058 63.4388506 173.37559814 61.68610729 175.98730469 59.82348633 C182.07518948 55.63223654 188.58420569 53.23385384 195.54003906 50.82836914 C200.44862348 49.10180852 204.60732054 47.23171957 208.82470703 44.15722656 C215.88731085 40.40001645 223.84337291 40.59259182 231.640625 40.3671875 C232.86435822 40.32544403 234.08809143 40.28370056 235.34890747 40.24069214 C238.6371325 40.13142143 241.92545705 40.03035834 245.2141037 39.93473816 C247.25635129 39.87481364 249.29849726 39.81213777 251.34063721 39.74865723 C329.99175984 37.31447083 329.99175984 37.31447083 356 47 C356.83208984 47.30164063 357.66417969 47.60328125 358.52148438 47.9140625 C361.0205329 48.82280742 363.51186817 49.74930669 366 50.6875 C366.76022461 50.97262451 367.52044922 51.25774902 368.30371094 51.55151367 C373.65349076 53.64551788 373.65349076 53.64551788 375.49609375 55.53051758 C377.87721912 57.85713992 380.84013408 58.1807755 384 59 C385 60 385 60 385.0625 63.0625 C385.041875 64.031875 385.02125 65.00125 385 66 C383.2984375 66.433125 383.2984375 66.433125 381.5625 66.875 C380.386875 67.24625 379.21125 67.6175 378 68 C377.67 68.66 377.34 69.32 377 70 C377.69222656 70.15855469 378.38445312 70.31710938 379.09765625 70.48046875 C385.16329953 71.92695285 391.13154934 73.58092882 397.0625 75.5 C398.31160156 75.9021875 399.56070312 76.304375 400.84765625 76.71875 C403.69165218 77.874674 405.23925256 78.53112588 407 81 C407.1875 83.6875 407.1875 83.6875 407 86 C405.35 86.33 403.7 86.66 402 87 C402 87.66 402 88.32 402 89 C402.68964844 89.09796875 403.37929688 89.1959375 404.08984375 89.296875 C407.59163587 90.14294558 410.38441016 91.55600078 413.5625 93.25 C414.67753906 93.83265625 415.79257812 94.4153125 416.94140625 95.015625 C420.8363355 97.54260337 423.57012441 99.99391393 424.5625 104.625 C424 107 424 107 421.8125 108.75 C419.1636062 109.92728613 416.85984992 110.59145001 414 111 C417.44404515 114.64738361 420.89131261 117.44196438 425.125 120.125 C425.71684082 120.50116455 426.30868164 120.8773291 426.91845703 121.26489258 C432.91887742 125.03529225 439.06837298 128.5553194 445.25048828 132.01806641 C450.48107803 134.98306483 455.2769276 138.27979384 460 142 C459.67 143.65 459.34 145.3 459 147 C457.35 147.33 455.7 147.66 454 148 C454.35304199 148.74572266 454.70608398 149.49144531 455.06982422 150.25976562 C456.39135925 153.06015094 457.70632618 155.86350406 459.01708984 158.66894531 C459.85931258 160.46651802 460.70888594 162.26064084 461.55859375 164.0546875 C465.34565295 172.17633252 468.29718557 179.21748187 468.25 188.3125 C468.25515625 189.31925781 468.2603125 190.32601562 468.265625 191.36328125 C468 194 468 194 466 197 C465.34 197 464.68 197 464 197 C464.62330842 199.20881138 465.24872241 201.41702865 465.875 203.625 C466.22304688 204.85476563 466.57109375 206.08453125 466.9296875 207.3515625 C467.58782291 209.59498759 468.30499237 211.82326613 469.1171875 214.015625 C470.14723937 217.49774726 470.26566629 220.49825435 470.25 224.125 C470.25515625 225.32382812 470.2603125 226.52265625 470.265625 227.7578125 C470.0177204 230.78370687 469.59019672 232.46325761 468 235 C466.68 235 465.36 235 464 235 C464.03480469 235.94101562 464.06960938 236.88203125 464.10546875 237.8515625 C464.14607422 239.71941406 464.14607422 239.71941406 464.1875 241.625 C464.22230469 242.85476563 464.25710938 244.08453125 464.29296875 245.3515625 C463.9787947 249.26407664 462.96906533 251.64070218 461 255 C459.02 255 457.04 255 455 255 C455.00444122 255.57993713 455.00888245 256.15987427 455.01345825 256.75738525 C455.05769569 262.79184506 455.08786816 268.82625882 455.10986328 274.86083984 C455.11992253 277.11313752 455.13357146 279.36542214 455.15087891 281.61767578 C455.17513031 284.85452498 455.1864839 288.09120155 455.1953125 291.328125 C455.20563507 292.33554749 455.21595764 293.34296997 455.22659302 294.38092041 C455.22681961 295.79193024 455.22681961 295.79193024 455.22705078 297.23144531 C455.231492 298.05751282 455.23593323 298.88358032 455.24050903 299.73468018 C454.97643263 302.22197764 454.24570507 303.84933375 453 306 C446.375 306.125 446.375 306.125 443 305 C442.89042969 305.71285156 442.78085937 306.42570312 442.66796875 307.16015625 C440.73934238 318.81031393 436.66698417 326.4888583 427.5625 334.0625 C416.94053127 341.49173824 407.09088414 344.93457567 394.23046875 343.85546875 C391.00732347 343.66768327 391.00732347 343.66768327 389.1640625 345.5703125 C387.7325952 348.55814023 386.96360711 351.46612391 386.1875 354.6875 C383.26889198 365.31563864 377.20647945 374.19116503 367.921875 380.38671875 C363.94773423 382.54822661 360.56879392 383.89389446 356 383 C353.08450308 381.1496495 350.57016056 379.14032113 349 376 C348.93049459 374.45976004 348.91547643 372.91665012 348.9375 371.375 C348.94652344 370.55773437 348.95554687 369.74046875 348.96484375 368.8984375 C348.98224609 367.95871094 348.98224609 367.95871094 349 367 C347.3603125 367.0928125 347.3603125 367.0928125 345.6875 367.1875 C342 367 342 367 340.125 365.9375 C338.46514955 363.07886867 338.30684971 360.25260697 338 357 C336.948125 357 335.89625 357 334.8125 357 C330.84130563 355.95837525 330.27390739 355.72074561 328.0625 352.5625 C325.4149917 347.79525466 325.50941416 343.32013087 326 338 C325.24976563 338.19335938 324.49953125 338.38671875 323.7265625 338.5859375 C322.19128906 338.97652344 322.19128906 338.97652344 320.625 339.375 C319.12839844 339.75785156 319.12839844 339.75785156 317.6015625 340.1484375 C316.41304688 340.42945313 315.22453125 340.71046875 314 341 C313.28505371 341.17861572 312.57010742 341.35723145 311.83349609 341.54125977 C304.66055217 343.18356718 297.710019 343.26854719 290.375 343.1875 C288.51875 343.17456909 288.51875 343.17456909 286.625 343.16137695 C269.31096476 342.99236547 254.14140373 341.73958247 237.95703125 335.1574707 C234.25471662 333.68785325 230.66378539 332.66528989 226.74658203 331.91235352 C225.85504425 331.73938248 224.96350647 331.56641144 224.04495239 331.38819885 C223.3701181 331.26009323 222.69528381 331.13198761 222 331 C222.02141052 331.76341705 222.04282104 332.52683411 222.06488037 333.31338501 C222.2633733 340.52205589 222.44195 347.73081945 222.59840012 354.94051552 C222.67952192 358.64675897 222.76822492 362.35249153 222.87451172 366.05810547 C222.97687967 369.63696777 223.05899559 373.21578389 223.12732697 376.79545212 C223.15685471 378.15830251 223.19357042 379.52101748 223.2377243 380.88347244 C223.61924194 392.89822844 223.61924194 392.89822844 221.16894531 396.71240234 C215.59192887 402.59450996 211.25193949 405.58852199 203.125 406.375 C198.55307615 406.2607019 194.72303071 404.61311311 191 402 C189 399 189 399 189 396 C187.5459375 396.7425 187.5459375 396.7425 186.0625 397.5 C181.74618307 399.32478439 177.6255734 399.93761623 173 399 C170.4375 396.9375 170.4375 396.9375 169 394 C168.75 390.1875 168.75 390.1875 169 387 C168.2575 386.896875 167.515 386.79375 166.75 386.6875 C163.77634314 385.94408579 162.23298242 385.07348368 160 383 C158.27635819 377.82907456 158.20519064 373.68896988 160.5 368.8125 C165.62140492 363.05091947 170.62065912 360.52370881 178.3125 360.04296875 C178.869375 360.02878906 179.42625 360.01460938 180 360 C179.66399926 351.51887779 179.01722587 343.77176685 176.62109375 335.5859375 C175.99034916 332.95981852 175.8883378 330.68960249 176 328 C173.03 328 170.06 328 167 328 C167.0309375 329.2065625 167.0309375 329.2065625 167.0625 330.4375 C167 333 167 333 166 334 C163.34144244 334.1288816 160.72177485 334.18974459 158.0625 334.1875 C157.28342285 334.18814453 156.5043457 334.18878906 155.70166016 334.18945312 C150.8005156 334.14457272 146.39005512 333.62003095 141.625 332.4453125 C135.84807378 331.46529823 129.83929082 331.85985702 124 332 C123.66355469 331.02933594 123.66355469 331.02933594 123.3203125 330.0390625 C122.17857701 327.75836385 122.17857701 327.75836385 119.6796875 327.4609375 C118.75414062 327.43257813 117.82859375 327.40421875 116.875 327.375 C111.97880158 327.11051497 107.71096195 326.33329112 103 325 C103 324.34 103 323.68 103 323 C101.02 323.33 99.04 323.66 97 324 C97.20625 325.11375 97.4125 326.2275 97.625 327.375 C97.74875 328.57125 97.8725 329.7675 98 331 C97.34 331.66 96.68 332.32 96 333 C92.17934778 332.70610368 90.54805028 331.75605439 88 329 C80.07689656 336.79198825 75.12229706 345.25203357 70 355 C69.215507 356.47431144 68.43034677 357.94826804 67.64453125 359.421875 C66.11242592 362.30150617 64.58997886 365.18595431 63.07421875 368.07421875 C61.29974204 371.44824667 59.47253441 374.79031444 57.625 378.125 C56.0682251 380.94931293 54.73698067 383.63563006 53.5 386.625 C47.44056703 400.25872419 37.69776448 406.66922887 24.25 412.11328125 C17.97423921 414.23537344 10.33114671 415.80889068 4.0078125 413.16796875 C1.73793845 411.71807312 0.21224823 410.42449645 -1 408 C-1.23333333 401.46666667 -1.23333333 401.46666667 0 399 C-0.77085937 398.96261719 -1.54171875 398.92523438 -2.3359375 398.88671875 C-3.84027344 398.78810547 -3.84027344 398.78810547 -5.375 398.6875 C-6.37273437 398.62949219 -7.37046875 398.57148438 -8.3984375 398.51171875 C-9.25695312 398.34285156 -10.11546875 398.17398437 -11 398 C-13.03876191 394.94185713 -13.41616481 393.55116328 -13.8125 390 C-13.97685547 388.700625 -13.97685547 388.700625 -14.14453125 387.375 C-14 385 -14 385 -12.51171875 383.1875 C-12.01285156 382.795625 -11.51398438 382.40375 -11 382 C-11.474375 381.566875 -11.94875 381.13375 -12.4375 380.6875 C-14.97713595 377.94469318 -15.21916857 375.09610985 -15.375 371.5 C-15.42398438 370.7265625 -15.47296875 369.953125 -15.5234375 369.15625 C-15 367 -15 367 -12.93359375 365.3515625 C-0.40373195 359.57881659 15.71095707 356.47607049 29 361 C29.65365399 359.46163292 30.29753603 357.91911234 30.9375 356.375 C31.29714844 355.51648438 31.65679687 354.65796875 32.02734375 353.7734375 C33.85584675 348.55963377 34.18108162 343.25983025 34.5 337.7734375 C34.58331961 336.39843667 34.66665336 335.02343669 34.75 333.6484375 C34.87604916 331.50461694 35.00082668 329.36072687 35.125 327.21679688 C35.24689136 325.13131196 35.37328352 323.04613393 35.5 320.9609375 C35.5721875 319.72134277 35.644375 318.48174805 35.71875 317.20458984 C35.94315426 314.64770588 36.3154472 312.45409026 37 310 C37.08917199 308.43949024 37.1301671 306.87554692 37.125 305.3125 C37.12757813 304.52488281 37.13015625 303.73726563 37.1328125 302.92578125 C37.21127778 300.99235086 37.21127778 300.99235086 36 300 C36.01740234 301.39025391 36.01740234 301.39025391 36.03515625 302.80859375 C36.04417969 304.00613281 36.05320313 305.20367187 36.0625 306.4375 C36.07410156 307.63246094 36.08570313 308.82742188 36.09765625 310.05859375 C36 313 36 313 35 314 C31.875 314.5625 31.875 314.5625 28 314 C25.23394635 311.65126199 22.9993487 309.02636976 21 306 C21 305.34 21 304.68 21 304 C20.34 304 19.68 304 19 304 C18.67 305.32 18.34 306.64 18 308 C15.32421875 308.390625 15.32421875 308.390625 12 308 C9.94638512 305.91932431 8.44069506 304.12244023 6.8125 301.75 C6.38775391 301.16347656 5.96300781 300.57695312 5.52539062 299.97265625 C4.33549205 298.32567377 3.16707548 296.66323322 2 295 C1.00553101 293.66253628 0.00838883 292.32700028 -1 291 C-1.99 293.31 -2.98 295.62 -4 298 C-6.89619431 298.12067476 -8.36620957 298.09617266 -11 297 C-14.07777488 293.95648607 -16.53336312 290.54746258 -19 287 C-19.46019531 286.34128906 -19.92039062 285.68257813 -20.39453125 285.00390625 C-21.28870601 283.68634132 -22.14970509 282.34630027 -23 281 C-23.86625 281.86625 -23.86625 281.86625 -24.75 282.75 C-25.86375 283.86375 -25.86375 283.86375 -27 285 C-27.639375 285.763125 -28.27875 286.52625 -28.9375 287.3125 C-31 289 -31 289 -33.5625 288.9375 C-37.12102616 287.56883609 -38.5513375 285.98551038 -40.1328125 282.51171875 C-40.46023437 281.57972656 -40.78765625 280.64773438 -41.125 279.6875 C-41.62386719 278.30111328 -41.62386719 278.30111328 -42.1328125 276.88671875 C-43.80374413 271.32447337 -44.13653248 266.10757368 -44.125 260.3125 C-44.12757812 259.00925781 -44.13015625 257.70601563 -44.1328125 256.36328125 C-44 253 -44 253 -43 250 C-43.72703125 250.08121094 -44.4540625 250.16242188 -45.203125 250.24609375 C-53.11956862 250.7434088 -57.72216887 249.08166793 -64.30859375 244.7265625 C-66.88368915 242.94370488 -66.88368915 242.94370488 -69.546875 242.03515625 C-72.56328583 240.76230773 -74.42925763 239.0494367 -76.8125 236.8125 C-79.91471044 233.92264325 -83.03782164 231.12918638 -86.3125 228.4375 C-90.13535214 225.1079191 -92.64102747 221.45954171 -95 217 C-95.50813232 216.15002441 -96.01626465 215.30004883 -96.53979492 214.42431641 C-98.35775681 210.16102708 -98.46760108 206.70271648 -98.46875 202.12109375 C-98.47636353 201.27257339 -98.48397705 200.42405304 -98.49182129 199.54981995 C-98.50259387 197.75712002 -98.50548697 195.96435748 -98.50097656 194.17163086 C-98.50001141 191.46943146 -98.54151243 188.77014421 -98.5859375 186.06835938 C-98.67588304 172.91264795 -97.07554207 160.2315912 -87.3828125 150.3515625 C-86.92648438 149.90554687 -86.47015625 149.45953125 -86 149 C-86.56847656 148.61070312 -87.13695313 148.22140625 -87.72265625 147.8203125 C-97.38235377 140.82146655 -105.04576254 130.28829571 -107.69140625 118.46484375 C-108.74386706 110.05847959 -108.36310796 101.34903624 -107 93 C-107.66 93 -108.32 93 -109 93 C-108.67 91.68 -108.34 90.36 -108 89 C-107.20634033 89.16226074 -106.41268066 89.32452148 -105.5949707 89.49169922 C-101.19450957 90.11389006 -96.91817265 90.14322484 -92.48046875 90.1328125 C-91.58129227 90.13376923 -90.68211578 90.13472595 -89.75569153 90.13571167 C-87.86552866 90.13638947 -85.97536342 90.1345632 -84.08520508 90.13037109 C-81.17979794 90.12498572 -78.27454319 90.13034564 -75.36914062 90.13671875 C-73.53124966 90.13605851 -71.69335878 90.13477848 -69.85546875 90.1328125 C-68.98262741 90.13483673 -68.10978607 90.13686096 -67.210495 90.13894653 C-63.2913615 90.51462226 -63.2913615 90.51462226 -60 89 C-58.48071962 88.92820036 -56.95832518 88.91607993 -55.4375 88.9375 C-54.19806641 88.95103516 -54.19806641 88.95103516 -52.93359375 88.96484375 C-51.97646484 88.98224609 -51.97646484 88.98224609 -51 89 C-51.33 88.34 -51.66 87.68 -52 87 C-51.91549648 75.02162671 -49.14121447 64.04361415 -41 55 C-40.34 55 -39.68 55 -39 55 C-39.39832031 54.29617187 -39.79664062 53.59234375 -40.20703125 52.8671875 C-46.19763725 41.70221379 -48.22416404 31.13652574 -48.5625 18.625 C-48.60165527 17.79291016 -48.64081055 16.96082031 -48.68115234 16.10351562 C-48.70882992 9.51888935 -46.58762444 5.66825669 -42 1 C-39.19927374 -1.15655922 -36.21758173 -2.55238126 -33 -4 C-32.071875 -4.433125 -31.14375 -4.86625 -30.1875 -5.3125 C-18.99993373 -7.72550449 -9.95283008 -5.2021028 0 0 Z " fill="#FDFDFD" transform="translate(135,59)"/>
<path d="M0 0 C5.34061515 3.66624778 7.20094899 6.90321603 9 13 C9 13.66 9 14.32 9 15 C9.99 15 10.98 15 12 15 C12 14.34 12 13.68 12 13 C13.93252806 12.33943794 15.87141484 11.69747664 17.8125 11.0625 C19.43091797 10.52302734 19.43091797 10.52302734 21.08203125 9.97265625 C29.30615048 7.65630647 38.18427681 7.8481688 46.6640625 7.8671875 C48.10209732 7.86575241 48.10209732 7.86575241 49.56918335 7.86428833 C51.57069973 7.86361405 53.57221841 7.8654152 55.57373047 7.86962891 C58.65206693 7.87504765 61.7302614 7.86962833 64.80859375 7.86328125 C66.76041699 7.86394101 68.71224014 7.86522004 70.6640625 7.8671875 C71.5868399 7.86516327 72.50961731 7.86313904 73.46035767 7.86105347 C79.88501034 7.88501034 79.88501034 7.88501034 81 9 C83.68862664 9.39993686 86.36352217 9.75134543 89.0625 10.0625 C89.82111328 10.15337891 90.57972656 10.24425781 91.36132812 10.33789062 C93.2404301 10.5624374 95.12016095 10.78170978 97 11 C97 11.66 97 12.32 97 13 C97.61488281 13.13277344 98.22976562 13.26554687 98.86328125 13.40234375 C99.67152344 13.57894531 100.47976562 13.75554687 101.3125 13.9375 C102.11300781 14.11152344 102.91351563 14.28554687 103.73828125 14.46484375 C106 15 106 15 109 16 C109.165 15.154375 109.33 14.30875 109.5 13.4375 C111.60068574 8.62342852 114.60864231 5.83265052 119 3 C121.97550324 1.92249218 124.8712919 1.41231037 128 1 C128.804375 0.79375 129.60875 0.5875 130.4375 0.375 C137.44031465 -0.64980214 143.81036715 -0.78255341 150 3 C155.97511968 8.76757439 160.23261148 13.56419073 160.625 22.0625 C160.5539463 29.94057897 156.99462817 34.24313942 152 40 C151.34 40.99 150.68 41.98 150 43 C150.598125 43.268125 151.19625 43.53625 151.8125 43.8125 C154.07100952 45.03854802 155.47062652 45.93534581 157 48 C157.1875 50.6875 157.1875 50.6875 157 53 C157.94875 53.28875 158.8975 53.5775 159.875 53.875 C163 55 163 55 165 57 C164.625 59.125 164.625 59.125 164 61 C162.35 61.33 160.7 61.66 159 62 C159 62.66 159 63.32 159 64 C162.47889518 65.01967617 164.44792937 65.42819482 168 65 C170.80565058 63.4388506 173.37559814 61.68610729 175.98730469 59.82348633 C182.07518948 55.63223654 188.58420569 53.23385384 195.54003906 50.82836914 C200.44862348 49.10180852 204.60732054 47.23171957 208.82470703 44.15722656 C215.88731085 40.40001645 223.84337291 40.59259182 231.640625 40.3671875 C232.86435822 40.32544403 234.08809143 40.28370056 235.34890747 40.24069214 C238.6371325 40.13142143 241.92545705 40.03035834 245.2141037 39.93473816 C247.25635129 39.87481364 249.29849726 39.81213777 251.34063721 39.74865723 C329.99175984 37.31447083 329.99175984 37.31447083 356 47 C356.83208984 47.30164063 357.66417969 47.60328125 358.52148438 47.9140625 C361.0205329 48.82280742 363.51186817 49.74930669 366 50.6875 C366.76022461 50.97262451 367.52044922 51.25774902 368.30371094 51.55151367 C373.65349076 53.64551788 373.65349076 53.64551788 375.49609375 55.53051758 C377.87721912 57.85713992 380.84013408 58.1807755 384 59 C385 60 385 60 385.0625 63.0625 C385.041875 64.031875 385.02125 65.00125 385 66 C383.2984375 66.433125 383.2984375 66.433125 381.5625 66.875 C380.386875 67.24625 379.21125 67.6175 378 68 C377.67 68.66 377.34 69.32 377 70 C377.69222656 70.15855469 378.38445312 70.31710938 379.09765625 70.48046875 C385.16329953 71.92695285 391.13154934 73.58092882 397.0625 75.5 C398.31160156 75.9021875 399.56070312 76.304375 400.84765625 76.71875 C403.69165218 77.874674 405.23925256 78.53112588 407 81 C407.1875 83.6875 407.1875 83.6875 407 86 C405.35 86.33 403.7 86.66 402 87 C402 87.66 402 88.32 402 89 C402.68964844 89.09796875 403.37929688 89.1959375 404.08984375 89.296875 C407.59163587 90.14294558 410.38441016 91.55600078 413.5625 93.25 C414.67753906 93.83265625 415.79257812 94.4153125 416.94140625 95.015625 C420.8363355 97.54260337 423.57012441 99.99391393 424.5625 104.625 C424 107 424 107 421.8125 108.75 C419.1636062 109.92728613 416.85984992 110.59145001 414 111 C417.44404515 114.64738361 420.89131261 117.44196438 425.125 120.125 C425.71684082 120.50116455 426.30868164 120.8773291 426.91845703 121.26489258 C432.91887742 125.03529225 439.06837298 128.5553194 445.25048828 132.01806641 C450.48107803 134.98306483 455.2769276 138.27979384 460 142 C459.67 143.65 459.34 145.3 459 147 C457.35 147.33 455.7 147.66 454 148 C454.35304199 148.74572266 454.70608398 149.49144531 455.06982422 150.25976562 C456.39135925 153.06015094 457.70632618 155.86350406 459.01708984 158.66894531 C459.85931258 160.46651802 460.70888594 162.26064084 461.55859375 164.0546875 C465.34565295 172.17633252 468.29718557 179.21748187 468.25 188.3125 C468.25515625 189.31925781 468.2603125 190.32601562 468.265625 191.36328125 C468 194 468 194 466 197 C465.34 197 464.68 197 464 197 C464.62330842 199.20881138 465.24872241 201.41702865 465.875 203.625 C466.22304688 204.85476563 466.57109375 206.08453125 466.9296875 207.3515625 C467.58782291 209.59498759 468.30499237 211.82326613 469.1171875 214.015625 C470.14723937 217.49774726 470.26566629 220.49825435 470.25 224.125 C470.25515625 225.32382812 470.2603125 226.52265625 470.265625 227.7578125 C470.0177204 230.78370687 469.59019672 232.46325761 468 235 C466.68 235 465.36 235 464 235 C464.03480469 235.94101562 464.06960938 236.88203125 464.10546875 237.8515625 C464.14607422 239.71941406 464.14607422 239.71941406 464.1875 241.625 C464.22230469 242.85476563 464.25710938 244.08453125 464.29296875 245.3515625 C463.9787947 249.26407664 462.96906533 251.64070218 461 255 C459.02 255 457.04 255 455 255 C455.00444122 255.57993713 455.00888245 256.15987427 455.01345825 256.75738525 C455.05769569 262.79184506 455.08786816 268.82625882 455.10986328 274.86083984 C455.11992253 277.11313752 455.13357146 279.36542214 455.15087891 281.61767578 C455.17513031 284.85452498 455.1864839 288.09120155 455.1953125 291.328125 C455.20563507 292.33554749 455.21595764 293.34296997 455.22659302 294.38092041 C455.22681961 295.79193024 455.22681961 295.79193024 455.22705078 297.23144531 C455.231492 298.05751282 455.23593323 298.88358032 455.24050903 299.73468018 C454.97643263 302.22197764 454.24570507 303.84933375 453 306 C446.375 306.125 446.375 306.125 443 305 C442.89042969 305.71285156 442.78085937 306.42570312 442.66796875 307.16015625 C440.73934238 318.81031393 436.66698417 326.4888583 427.5625 334.0625 C416.94053127 341.49173824 407.09088414 344.93457567 394.23046875 343.85546875 C391.00732347 343.66768327 391.00732347 343.66768327 389.1640625 345.5703125 C387.7325952 348.55814023 386.96360711 351.46612391 386.1875 354.6875 C383.26889198 365.31563864 377.20647945 374.19116503 367.921875 380.38671875 C363.94773423 382.54822661 360.56879392 383.89389446 356 383 C353.08450308 381.1496495 350.57016056 379.14032113 349 376 C348.93049459 374.45976004 348.91547643 372.91665012 348.9375 371.375 C348.94652344 370.55773437 348.95554687 369.74046875 348.96484375 368.8984375 C348.98224609 367.95871094 348.98224609 367.95871094 349 367 C347.3603125 367.0928125 347.3603125 367.0928125 345.6875 367.1875 C342 367 342 367 340.125 365.9375 C338.46514955 363.07886867 338.30684971 360.25260697 338 357 C336.948125 357 335.89625 357 334.8125 357 C330.84130563 355.95837525 330.27390739 355.72074561 328.0625 352.5625 C325.4149917 347.79525466 325.50941416 343.32013087 326 338 C325.24976563 338.19335938 324.49953125 338.38671875 323.7265625 338.5859375 C322.19128906 338.97652344 322.19128906 338.97652344 320.625 339.375 C319.12839844 339.75785156 319.12839844 339.75785156 317.6015625 340.1484375 C316.41304688 340.42945313 315.22453125 340.71046875 314 341 C313.28505371 341.17861572 312.57010742 341.35723145 311.83349609 341.54125977 C304.66055217 343.18356718 297.710019 343.26854719 290.375 343.1875 C288.51875 343.17456909 288.51875 343.17456909 286.625 343.16137695 C269.31096476 342.99236547 254.14140373 341.73958247 237.95703125 335.1574707 C234.25471662 333.68785325 230.66378539 332.66528989 226.74658203 331.91235352 C225.85504425 331.73938248 224.96350647 331.56641144 224.04495239 331.38819885 C223.3701181 331.26009323 222.69528381 331.13198761 222 331 C222.02141052 331.76341705 222.04282104 332.52683411 222.06488037 333.31338501 C222.2633733 340.52205589 222.44195 347.73081945 222.59840012 354.94051552 C222.67952192 358.64675897 222.76822492 362.35249153 222.87451172 366.05810547 C222.97687967 369.63696777 223.05899559 373.21578389 223.12732697 376.79545212 C223.15685471 378.15830251 223.19357042 379.52101748 223.2377243 380.88347244 C223.61924194 392.89822844 223.61924194 392.89822844 221.16894531 396.71240234 C215.59192887 402.59450996 211.25193949 405.58852199 203.125 406.375 C198.55307615 406.2607019 194.72303071 404.61311311 191 402 C189 399 189 399 189 396 C187.5459375 396.7425 187.5459375 396.7425 186.0625 397.5 C181.74618307 399.32478439 177.6255734 399.93761623 173 399 C170.4375 396.9375 170.4375 396.9375 169 394 C168.75 390.1875 168.75 390.1875 169 387 C168.2575 386.896875 167.515 386.79375 166.75 386.6875 C163.77634314 385.94408579 162.23298242 385.07348368 160 383 C158.27635819 377.82907456 158.20519064 373.68896988 160.5 368.8125 C165.62140492 363.05091947 170.62065912 360.52370881 178.3125 360.04296875 C178.869375 360.02878906 179.42625 360.01460938 180 360 C179.66399926 351.51887779 179.01722587 343.77176685 176.62109375 335.5859375 C175.99034916 332.95981852 175.8883378 330.68960249 176 328 C173.03 328 170.06 328 167 328 C167.0309375 329.2065625 167.0309375 329.2065625 167.0625 330.4375 C167 333 167 333 166 334 C163.34144244 334.1288816 160.72177485 334.18974459 158.0625 334.1875 C157.28342285 334.18814453 156.5043457 334.18878906 155.70166016 334.18945312 C150.8005156 334.14457272 146.39005512 333.62003095 141.625 332.4453125 C135.84807378 331.46529823 129.83929082 331.85985702 124 332 C123.66355469 331.02933594 123.66355469 331.02933594 123.3203125 330.0390625 C122.17857701 327.75836385 122.17857701 327.75836385 119.6796875 327.4609375 C118.75414062 327.43257813 117.82859375 327.40421875 116.875 327.375 C111.97880158 327.11051497 107.71096195 326.33329112 103 325 C103 324.34 103 323.68 103 323 C101.02 323.33 99.04 323.66 97 324 C97.20625 325.11375 97.4125 326.2275 97.625 327.375 C97.74875 328.57125 97.8725 329.7675 98 331 C97.34 331.66 96.68 332.32 96 333 C92.17934778 332.70610368 90.54805028 331.75605439 88 329 C80.07689656 336.79198825 75.12229706 345.25203357 70 355 C69.215507 356.47431144 68.43034677 357.94826804 67.64453125 359.421875 C66.11242592 362.30150617 64.58997886 365.18595431 63.07421875 368.07421875 C61.29974204 371.44824667 59.47253441 374.79031444 57.625 378.125 C56.0682251 380.94931293 54.73698067 383.63563006 53.5 386.625 C47.44056703 400.25872419 37.69776448 406.66922887 24.25 412.11328125 C17.97423921 414.23537344 10.33114671 415.80889068 4.0078125 413.16796875 C1.73793845 411.71807312 0.21224823 410.42449645 -1 408 C-1.23333333 401.46666667 -1.23333333 401.46666667 0 399 C-0.77085937 398.96261719 -1.54171875 398.92523438 -2.3359375 398.88671875 C-3.84027344 398.78810547 -3.84027344 398.78810547 -5.375 398.6875 C-6.37273437 398.62949219 -7.37046875 398.57148438 -8.3984375 398.51171875 C-9.25695312 398.34285156 -10.11546875 398.17398437 -11 398 C-13.03876191 394.94185713 -13.41616481 393.55116328 -13.8125 390 C-13.97685547 388.700625 -13.97685547 388.700625 -14.14453125 387.375 C-14 385 -14 385 -12.51171875 383.1875 C-12.01285156 382.795625 -11.51398438 382.40375 -11 382 C-11.474375 381.566875 -11.94875 381.13375 -12.4375 380.6875 C-14.97713595 377.94469318 -15.21916857 375.09610985 -15.375 371.5 C-15.42398438 370.7265625 -15.47296875 369.953125 -15.5234375 369.15625 C-15 367 -15 367 -12.93359375 365.3515625 C-0.40373195 359.57881659 15.71095707 356.47607049 29 361 C29.65365399 359.46163292 30.29753603 357.91911234 30.9375 356.375 C31.29714844 355.51648438 31.65679687 354.65796875 32.02734375 353.7734375 C33.85584675 348.55963377 34.18108162 343.25983025 34.5 337.7734375 C34.58331961 336.39843667 34.66665336 335.02343669 34.75 333.6484375 C34.87604916 331.50461694 35.00082668 329.36072687 35.125 327.21679688 C35.24689136 325.13131196 35.37328352 323.04613393 35.5 320.9609375 C35.5721875 319.72134277 35.644375 318.48174805 35.71875 317.20458984 C35.94315426 314.64770588 36.3154472 312.45409026 37 310 C37.08917199 308.43949024 37.1301671 306.87554692 37.125 305.3125 C37.12757813 304.52488281 37.13015625 303.73726563 37.1328125 302.92578125 C37.21127778 300.99235086 37.21127778 300.99235086 36 300 C36.01740234 301.39025391 36.01740234 301.39025391 36.03515625 302.80859375 C36.04417969 304.00613281 36.05320313 305.20367187 36.0625 306.4375 C36.07410156 307.63246094 36.08570313 308.82742188 36.09765625 310.05859375 C36 313 36 313 35 314 C31.875 314.5625 31.875 314.5625 28 314 C25.23394635 311.65126199 22.9993487 309.02636976 21 306 C21 305.34 21 304.68 21 304 C20.34 304 19.68 304 19 304 C18.67 305.32 18.34 306.64 18 308 C15.32421875 308.390625 15.32421875 308.390625 12 308 C9.94638512 305.91932431 8.44069506 304.12244023 6.8125 301.75 C6.38775391 301.16347656 5.96300781 300.57695312 5.52539062 299.97265625 C4.33549205 298.32567377 3.16707548 296.66323322 2 295 C1.00553101 293.66253628 0.00838883 292.32700028 -1 291 C-1.99 293.31 -2.98 295.62 -4 298 C-6.89619431 298.12067476 -8.36620957 298.09617266 -11 297 C-14.07777488 293.95648607 -16.53336312 290.54746258 -19 287 C-19.46019531 286.34128906 -19.92039062 285.68257813 -20.39453125 285.00390625 C-21.28870601 283.68634132 -22.14970509 282.34630027 -23 281 C-23.86625 281.86625 -23.86625 281.86625 -24.75 282.75 C-25.86375 283.86375 -25.86375 283.86375 -27 285 C-27.639375 285.763125 -28.27875 286.52625 -28.9375 287.3125 C-31 289 -31 289 -33.5625 288.9375 C-37.12102616 287.56883609 -38.5513375 285.98551038 -40.1328125 282.51171875 C-40.46023437 281.57972656 -40.78765625 280.64773438 -41.125 279.6875 C-41.62386719 278.30111328 -41.62386719 278.30111328 -42.1328125 276.88671875 C-43.80374413 271.32447337 -44.13653248 266.10757368 -44.125 260.3125 C-44.12757812 259.00925781 -44.13015625 257.70601563 -44.1328125 256.36328125 C-44 253 -44 253 -43 250 C-43.72703125 250.08121094 -44.4540625 250.16242188 -45.203125 250.24609375 C-53.11956862 250.7434088 -57.72216887 249.08166793 -64.30859375 244.7265625 C-66.88368915 242.94370488 -66.88368915 242.94370488 -69.546875 242.03515625 C-72.56328583 240.76230773 -74.42925763 239.0494367 -76.8125 236.8125 C-79.91471044 233.92264325 -83.03782164 231.12918638 -86.3125 228.4375 C-90.13535214 225.1079191 -92.64102747 221.45954171 -95 217 C-95.50813232 216.15002441 -96.01626465 215.30004883 -96.53979492 214.42431641 C-98.35775681 210.16102708 -98.46760108 206.70271648 -98.46875 202.12109375 C-98.47636353 201.27257339 -98.48397705 200.42405304 -98.49182129 199.54981995 C-98.50259387 197.75712002 -98.50548697 195.96435748 -98.50097656 194.17163086 C-98.50001141 191.46943146 -98.54151243 188.77014421 -98.5859375 186.06835938 C-98.67588304 172.91264795 -97.07554207 160.2315912 -87.3828125 150.3515625 C-86.92648438 149.90554687 -86.47015625 149.45953125 -86 149 C-86.56847656 148.61070312 -87.13695313 148.22140625 -87.72265625 147.8203125 C-97.38235377 140.82146655 -105.04576254 130.28829571 -107.69140625 118.46484375 C-108.74386706 110.05847959 -108.36310796 101.34903624 -107 93 C-107.66 93 -108.32 93 -109 93 C-108.67 91.68 -108.34 90.36 -108 89 C-107.20634033 89.16226074 -106.41268066 89.32452148 -105.5949707 89.49169922 C-101.19450957 90.11389006 -96.91817265 90.14322484 -92.48046875 90.1328125 C-91.58129227 90.13376923 -90.68211578 90.13472595 -89.75569153 90.13571167 C-87.86552866 90.13638947 -85.97536342 90.1345632 -84.08520508 90.13037109 C-81.17979794 90.12498572 -78.27454319 90.13034564 -75.36914062 90.13671875 C-73.53124966 90.13605851 -71.69335878 90.13477848 -69.85546875 90.1328125 C-68.98262741 90.13483673 -68.10978607 90.13686096 -67.210495 90.13894653 C-63.2913615 90.51462226 -63.2913615 90.51462226 -60 89 C-58.48071962 88.92820036 -56.95832518 88.91607993 -55.4375 88.9375 C-54.19806641 88.95103516 -54.19806641 88.95103516 -52.93359375 88.96484375 C-51.97646484 88.98224609 -51.97646484 88.98224609 -51 89 C-51.33 88.34 -51.66 87.68 -52 87 C-51.91549648 75.02162671 -49.14121447 64.04361415 -41 55 C-40.34 55 -39.68 55 -39 55 C-39.39832031 54.29617187 -39.79664062 53.59234375 -40.20703125 52.8671875 C-46.19763725 41.70221379 -48.22416404 31.13652574 -48.5625 18.625 C-48.60165527 17.79291016 -48.64081055 16.96082031 -48.68115234 16.10351562 C-48.70882992 9.51888935 -46.58762444 5.66825669 -42 1 C-39.19927374 -1.15655922 -36.21758173 -2.55238126 -33 -4 C-32.071875 -4.433125 -31.14375 -4.86625 -30.1875 -5.3125 C-18.99993373 -7.72550449 -9.95283008 -5.2021028 0 0 Z M117.25 11.0625 C111.81485241 18.15838713 108.54592114 27.23978023 107 36 C105.68 36 104.36 36 103 36 C103.2165625 35.39671875 103.433125 34.7934375 103.65625 34.171875 C103.9346875 33.37265625 104.213125 32.5734375 104.5 31.75 C104.7784375 30.96109375 105.056875 30.1721875 105.34375 29.359375 C106.17864861 26.76587262 106.17864861 26.76587262 106 23 C91.02644147 19.18854874 75.9489639 18.69362242 60.57788086 18.79418945 C57.6735766 18.8125882 54.76959128 18.81469721 51.86523438 18.81445312 C34.01637655 17.93906746 34.01637655 17.93906746 18 24 C14.46454208 24.97790825 10.85977836 25.54764267 7.25 26.1875 C-1.84832698 27.99744656 -8.39409705 30.11766685 -14 38 C-14 38.66 -14 39.32 -14 40 C-10.7 40.33 -7.4 40.66 -4 41 C-2.875 47.75 -2.875 47.75 -4 50 C-5.11117187 49.91878906 -6.22234375 49.83757812 -7.3671875 49.75390625 C-15.92415006 49.31619765 -22.32909138 49.22867959 -29.23828125 54.9765625 C-31.81514291 57.93623953 -32.52604502 60.12936762 -33 64 C-33.66 64 -34.32 64 -35 64 C-38.0829337 69.4465162 -39.53984573 74.06614451 -40.49609375 80.234375 C-41.23823988 84.30754913 -42.56488244 88.12518258 -44 92 C-43.01 92.10957031 -42.02 92.21914062 -41 92.33203125 C-32.95585783 93.27720268 -26.08103841 94.71733715 -18.65234375 98.0546875 C-6.46024583 102.4000302 11.60848325 100.98253262 24 98 C24.65097656 97.84450684 25.30195313 97.68901367 25.97265625 97.52880859 C34.55460665 95.5073565 34.55460665 95.5073565 43 93 C55.4502104 92.28162576 68.2186729 92.55224348 80.625 93.8125 C81.35009766 93.88251221 82.07519531 93.95252441 82.82226562 94.0246582 C90.34940305 94.9058112 96.66681948 96.4829167 102 102 C104.96739112 103.07905132 106.91326185 103.39618356 109.91796875 102.30078125 C112.00161163 101.28112623 113.99842 100.17213148 116 99 C116.60070312 98.66355469 117.20140625 98.32710938 117.8203125 97.98046875 C120.13773918 96.67626674 122.4357182 95.34140337 124.7109375 93.96484375 C131.60266246 89.86411148 138.78545337 86.36315307 147 88 C150.27062232 89.72426114 152.53806493 91.7791716 153.875 95.3125 C153.91625 95.869375 153.9575 96.42625 154 97 C153.13375 96.67 152.2675 96.34 151.375 96 C145.06699022 94.13096006 141.71764663 94.96614669 136 98 C134.741875 98.350625 133.48375 98.70125 132.1875 99.0625 C131.135625 99.371875 130.08375 99.68125 129 100 C128.67 100.66 128.34 101.32 128 102 C126.171875 102.60546875 126.171875 102.60546875 123.75 103.1875 C113.61439047 106.14553064 113.61439047 106.14553064 105 112 C103.28549189 116.10350544 103.04109734 120.51236284 102.56640625 124.89453125 C101.7795899 131.81006817 98.55462148 135.90221355 93.26953125 140.2421875 C90.56226887 142.25207054 87.8205162 144.15360242 85 146 C84.01 146.66 83.02 147.32 82 148 C80.55463698 148.51697441 79.09446743 148.99365062 77.625 149.4375 C74.88506263 150.308093 72.83824101 151.10013652 70.375 152.625 C65.22562267 155.60621845 58.76495831 155.20564256 52.9375 155.25 C51.9155957 155.2809375 51.9155957 155.2809375 50.87304688 155.3125 C43.82291349 155.3666797 39.11004847 152.67569435 34 148 C32.15625 145.44921875 32.15625 145.44921875 30.5 142.6875 C28.57982127 139.54388126 26.67732451 136.48651527 24.4375 133.5625 C19.46009276 126.69996178 15.88814065 119.45848239 15 111 C11.22923111 110.94200876 7.45857666 110.90640694 3.6875 110.875 C2.61564453 110.85824219 1.54378906 110.84148437 0.43945312 110.82421875 C-1.10258789 110.81455078 -1.10258789 110.81455078 -2.67578125 110.8046875 C-3.62364502 110.79421387 -4.57150879 110.78374023 -5.5480957 110.77294922 C-8.25689249 110.82776125 -8.25689249 110.82776125 -11 113 C-11.94715734 114.7065155 -11.94715734 114.7065155 -12.61328125 116.7109375 C-12.88873779 117.45577393 -13.16419434 118.20061035 -13.44799805 118.96801758 C-13.73328369 119.76232178 -14.01856934 120.55662598 -14.3125 121.375 C-21.01858867 139.30133711 -21.01858867 139.30133711 -26.17578125 145.69921875 C-28.20709402 147.77182622 -28.20709402 147.77182622 -28 150 C-38.26308652 153.58014646 -38.26308652 153.58014646 -43.5 151.5625 C-49.56376243 149.57168643 -55.66608284 149.29111683 -62 150 C-62.99 150.99 -62.99 150.99 -64 152 C-66.35546875 152.23828125 -66.35546875 152.23828125 -69.1875 152.3125 C-74.68391918 152.74415596 -78.26979851 153.8417426 -82 158 C-83.62093326 160.5690263 -84.82728568 163.20438245 -86 166 C-86.33862061 166.52827393 -86.67724121 167.05654785 -87.02612305 167.60083008 C-88.45320484 171.11648132 -88.3654443 174.61083095 -88.40625 178.3515625 C-88.41765015 179.16563568 -88.42905029 179.97970886 -88.4407959 180.81845093 C-88.45966522 182.54151237 -88.47275172 184.26464549 -88.48046875 185.98779297 C-88.49978559 188.59604899 -88.56179961 191.20108383 -88.625 193.80859375 C-88.77649188 205.73451858 -86.95108588 212.7555264 -78.6875 221.6875 C-77.47766 222.81280969 -76.24759427 223.91669798 -75 225 C-74.33226562 225.58523438 -73.66453125 226.17046875 -72.9765625 226.7734375 C-63.97909394 234.21177794 -55.36141325 239.01133593 -43.44921875 238.4609375 C-37.97545213 237.72944887 -33.11057745 236.0359211 -28 234 C-26.06444781 233.28636139 -24.12698976 232.57786686 -22.1875 231.875 C-20.84171875 231.37613281 -20.84171875 231.37613281 -19.46875 230.8671875 C-17 230 -17 230 -13.1875 229 C-9.88973003 228.14802606 -9.88973003 228.14802606 -7.125 225.9375 C-3.24084512 223.52932398 0.42376577 222.72542595 5 223 C7 225 7 225 7 227.90234375 C6 231 6 231 3.4375 232.94140625 C2.303125 233.47636719 1.16875 234.01132812 0 234.5625 C-0.61576904 234.85423096 -1.23153809 235.14596191 -1.8659668 235.4465332 C-7.36019079 237.94191508 -13.04236894 239.70074413 -18.87304688 241.22680664 C-24.18119876 242.63141543 -29.03758227 244.65681626 -34 247 C-34.05785647 250.95827235 -34.09354717 254.9164367 -34.125 258.875 C-34.14175781 260.00292969 -34.15851563 261.13085938 -34.17578125 262.29296875 C-34.18222656 263.36933594 -34.18867187 264.44570313 -34.1953125 265.5546875 C-34.20578613 266.54968262 -34.21625977 267.54467773 -34.22705078 268.56982422 C-34.24379401 271.18171417 -34.24379401 271.18171417 -32 273 C-31.649375 272.34 -31.29875 271.68 -30.9375 271 C-29 269 -29 269 -25.75 268.375 C-20.82385658 269.1960239 -18.32783049 271.39119173 -15 275 C-14.01 276.485 -14.01 276.485 -13 278 C-12.01 277.67 -11.02 277.34 -10 277 C-4.49762241 276.36511028 -1.79286918 277.33405272 2.421875 280.61328125 C4.0174481 282.01533187 5.51858155 283.47842262 7 285 C7.33 284.67 7.66 284.34 8 284 C11.21191399 283.55390083 12.64160742 283.76362595 15.375 285.56640625 C18.52717902 288.48873889 20.54256646 291.5932414 22.75 295.25 C24.14135147 297.51938881 25.55356916 299.76460688 27 302 C27.33 302 27.66 302 28 302 C27.67 298.04 27.34 294.08 27 290 C28.32 289.67 29.64 289.34 31 289 C31.66 289.66 32.32 290.32 33 291 C34.0725 291.391875 35.145 291.78375 36.25 292.1875 C40.76623713 294.05371369 43.06383718 297.21846383 46 301 C50.12014016 306.07784828 54.32998225 310.293754 59.59375 314.1875 C63.10526941 316.8325406 66.41086395 319.72177629 69.73828125 322.59375 C71.88640248 324.25734081 71.88640248 324.25734081 74.29296875 323.71875 C74.85628906 323.4815625 75.41960937 323.244375 76 323 C75.01 321.515 75.01 321.515 74 320 C73.66666667 313.66666667 73.66666667 313.66666667 75 311 C78.12146837 310.85481542 80.47742321 310.78396744 83.390625 311.98828125 C86.12845483 313.04980509 88.14487089 313.2288877 91.0625 313.3125 C98.34724901 313.83708111 104.53688272 316.76844136 111 320 C112.9128204 320.20617226 114.83075046 320.36632093 116.75 320.5 C119.8473519 320.71790415 122.84235052 320.97131714 125.8984375 321.52734375 C129.57346607 322.08739218 133.16962478 322.10917624 136.875 322.0625 C137.56335938 322.05798828 138.25171875 322.05347656 138.9609375 322.04882812 C140.64066335 322.03716336 142.32034375 322.01923271 144 322 C144.33 321.34 144.66 320.68 145 320 C148.18776711 320.14032492 151.3751385 320.28826644 154.5625 320.4375 C155.45775391 320.47681641 156.35300781 320.51613281 157.27539062 320.55664062 C162.2458219 320.79332783 167.08823519 321.19821672 172 322 C170.28801335 313.11781043 167.19488084 306.0447647 162.3046875 298.4296875 C160.95673121 295.91942159 160.40930659 293.80524758 160 291 C161.98 291 163.96 291 166 291 C166.25007812 291.67675781 166.50015625 292.35351562 166.7578125 293.05078125 C168.23662715 296.56180345 170.0412628 299.85443289 171.875 303.1875 C174.6362653 308.28036286 177.11759128 313.33040989 179.140625 318.76953125 C179.9784884 320.94416763 180.96637051 322.97536353 182 325.0625 C184.66170306 330.89089326 185.80309095 337.17403564 187.16796875 343.40234375 C187.80874166 346.81263169 187.80874166 346.81263169 189 349 C189.20353342 351.45693908 189.32340647 353.85242653 189.375 356.3125 C189.42398437 357.62863281 189.47296875 358.94476563 189.5234375 360.30078125 C189 364 189 364 186.79296875 366.9453125 C183.80846988 369.14090188 182.56510464 369.56810681 178.9375 369.5625 C174.87160211 369.76373362 174.87160211 369.76373362 171.375 371.875 C169.72837436 373.99794223 169.72837436 373.99794223 170 377 C171.13179688 376.98839844 172.26359375 376.97679687 173.4296875 376.96484375 C174.91145669 376.95546546 176.39322765 376.9463653 177.875 376.9375 C178.62136719 376.92912109 179.36773437 376.92074219 180.13671875 376.91210938 C185.7734375 376.88671875 185.7734375 376.88671875 188 378 C188.375 380.1875 188.375 380.1875 188 383 C186.16038352 384.99022836 184.20813852 386.38989899 182 388 C182.66 388.33 183.32 388.66 184 389 C184.886875 388.34 185.77375 387.68 186.6875 387 C189.98111986 385.01139933 191.28251873 384.56264926 195 385 C194.94199219 385.61488281 194.88398438 386.22976563 194.82421875 386.86328125 C194.68727447 389.3165402 194.66319374 391.56463168 195 394 C197.74594341 396.74594341 199.60328152 396.95672162 203.4375 397.375 C207.29836117 396.96859356 209.71341293 396.0345539 213 394 C214.29459391 391.41081218 214.12706389 389.53850315 214.12939453 386.63916016 C214.13254669 385.5168399 214.13569885 384.39451965 214.13894653 383.2381897 C214.1369223 382.01747772 214.13489807 380.79676575 214.1328125 379.5390625 C214.13376923 378.28298187 214.13472595 377.02690125 214.13571167 375.73275757 C214.13639373 373.06447959 214.13503767 370.39629241 214.13037109 367.72802734 C214.1247317 364.34156882 214.12791551 360.95519057 214.13394356 357.56873512 C214.13847941 354.30884162 214.13527671 351.04895707 214.1328125 347.7890625 C214.13584885 345.988358 214.13584885 345.988358 214.13894653 344.15127563 C214.12100134 337.5824745 213.85499876 331.11144967 213.22705078 324.57167053 C212.90921421 320.97172276 212.86750945 317.42668836 212.875 313.8125 C212.87113281 311.90404297 212.87113281 311.90404297 212.8671875 309.95703125 C213 307 213 307 214 306 C216.5 305.875 216.5 305.875 219 306 C221.11925604 308.11925604 220.41831017 312.6196093 220.5625 315.5625 C220.60568359 316.36880859 220.64886719 317.17511719 220.69335938 318.00585938 C220.79975262 320.00368805 220.90040888 322.0018207 221 324 C221.64324219 323.96519531 222.28648437 323.93039062 222.94921875 323.89453125 C229.74077335 323.69107526 235.67959579 324.63797198 242.25 326.34375 C245.01514067 327.1160593 245.01514067 327.1160593 248 327 C248 327.66 248 328.32 248 329 C253.51101273 331.20070643 258.89263369 331.66302661 264.75 332.125 C265.79188477 332.2084668 266.83376953 332.29193359 267.90722656 332.37792969 C275.85446063 332.95758802 283.78252466 333.21181721 291.75 333.25 C292.79510742 333.25918457 293.84021484 333.26836914 294.91699219 333.27783203 C302.11811678 333.24917426 308.94124684 332.40126409 316 331 C317.14855469 330.77441406 318.29710937 330.54882812 319.48046875 330.31640625 C327.02901243 328.21414228 330.60982013 324.78226104 335.16015625 318.4609375 C337 316 337 316 340 314 C339.3969165 310.71573807 338.28732941 308.82295553 336.1875 306.25 C328.5136415 296.29422674 325.69926403 285.55772261 327 273 C329.05651485 264.66277763 332.6647951 256.31712027 339.5625 250.9375 C343 249 343 249 345.21484375 249.37890625 C346.09849609 249.68634766 346.09849609 249.68634766 347 250 C347.375 252.1875 347.375 252.1875 347 255 C345.55832521 256.21231744 344.10842528 257.41792798 342.59765625 258.54296875 C338.37527279 262.39369988 336.19893675 268.82680488 335.69140625 274.37109375 C335.17183137 286.33019767 337.95987404 294.38799965 345.875 303.625 C349.12794415 307.60804939 349.92840913 310.5802939 349.578125 315.69921875 C348.64068765 319.42996605 346.69402927 321.30597073 344 324 C344 324.66 344 325.32 344 326 C344.66 326.33 345.32 326.66 346 327 C346.04254356 328.99954746 346.04080783 331.00041636 346 333 C344.03177114 334.96822886 340.65191291 334.66248381 338 335 C338 337.64 338 340.28 338 343 C338.886875 342.34 339.77375 341.68 340.6875 341 C343.97506886 339.01505276 345.28458576 338.38076429 349 339 C351 341 351 341 351.1875 343.5625 C351 346 351 346 350 347 C349.95936168 348.66617115 349.957279 350.33388095 350 352 C350.37125 351.505 350.7425 351.01 351.125 350.5 C353.76701674 348.38638661 355.71137147 348.7140323 359 349 C360.71216126 350.71216126 360.17191224 352.91807056 360.1875 355.25 C360.20167969 356.20390625 360.21585937 357.1578125 360.23046875 358.140625 C359.98849989 361.14267929 359.16825867 363.24657467 358 366 C357.83242243 369.20870233 357.83242243 369.20870233 358 372 C362.32762142 371.89444826 364.58960783 370.8054974 367.625 367.875 C372.13491602 362.9668574 374.81276655 358.74047767 375.9375 352.125 C377.09961664 345.4958825 379.46510084 340.12103807 384.6796875 335.7578125 C388.57584417 333.69514132 391.6009692 333.65034004 395.875 333.75 C407.60582137 333.53682908 419.14819613 328.09931275 427.59375 319.89453125 C430.27799535 316.27825626 431.07745881 312.34027768 432 308 C432.54161539 305.99998611 433.0832835 303.9999865 433.625 302 C434.80262806 297.30162824 435.40592418 292.79745229 435.59375 287.9609375 C436 286 436 286 439 284 C441.5 284.125 441.5 284.125 444 285 C445.65625 287.0546875 445.65625 287.0546875 447 289 C448.59186224 280.43324201 449.52542387 271.9389393 450.125 263.25 C450.21136719 262.0640625 450.29773438 260.878125 450.38671875 259.65625 C450.59612104 256.77115185 450.80047083 253.88579483 451 251 C453.31 250.34 455.62 249.68 458 249 C457.67 241.08 457.34 233.16 457 225 C458.65 224.67 460.3 224.34 462 224 C462.53895928 215.12214294 461.46573374 207.74785895 458.97265625 199.3125 C458.15965484 196.54372412 457.51042463 193.83688637 457 191 C458.65 190.34 460.3 189.68 462 189 C460.59109827 174.59519441 455.08812264 162.59222776 448.3203125 150.0234375 C447 147 447 147 447.09375 144.33203125 C447.25903313 141.8254922 447.25903313 141.8254922 445.0859375 140.11328125 C444.19132813 139.51902344 443.29671875 138.92476562 442.375 138.3125 C441.37082031 137.62671875 440.36664062 136.9409375 439.33203125 136.234375 C438.51919678 135.69200195 438.51919678 135.69200195 437.68994141 135.13867188 C434.77207593 133.1726325 431.92151103 131.1127379 429.0625 129.0625 C428.47807129 128.64589111 427.89364258 128.22928223 427.29150391 127.80004883 C411.59627956 116.59627956 411.59627956 116.59627956 408 113 C407.875 110.375 407.875 110.375 408 108 C411.96 106.02 411.96 106.02 416 104 C412.8865998 100.8865998 409.6248571 98.78739059 405.875 96.5625 C405.20645996 96.16071533 404.53791992 95.75893066 403.84912109 95.3449707 C400.19103402 93.17919579 396.57636343 91.28079171 392.625 89.6875 C391.42875 89.130625 390.2325 88.57375 389 88 C388.2734375 85.89453125 388.2734375 85.89453125 388 84 C389.98 83.67 391.96 83.34 394 83 C390.51729329 80.00844423 386.63125441 78.49779513 382.375 76.9375 C381.66730469 76.67437012 380.95960938 76.41124023 380.23046875 76.14013672 C374.9056915 74.21123858 369.6204385 72.78361883 364 72 C363.67 70.35 363.34 68.7 363 67 C365.64 65.68 368.28 64.36 371 63 C356.62657357 48.62657357 329.66856033 49.23189103 311 49 C309.36901367 48.9693042 309.36901367 48.9693042 307.70507812 48.93798828 C289.1672958 48.61062814 270.6261977 49.10753472 252.09637451 49.63778687 C249.42019442 49.71398969 246.74428797 49.78066382 244.06768799 49.84292603 C240.26438169 49.93395742 236.46257823 50.04982015 232.66015625 50.171875 C231.51755844 50.19499252 230.37496063 50.21811005 229.19773865 50.2419281 C222.271937 50.49705466 217.08126069 51.67606429 211 55 C205.65804656 57.75183835 200.47624729 59.9271093 194.75 61.75 C186.94204027 64.37623624 180.57581888 67.98847284 174 73 C173.13246094 73.65871094 172.26492188 74.31742187 171.37109375 74.99609375 C169.85092669 76.16977008 168.33897852 77.35426301 166.83984375 78.5546875 C162.39430008 82.04694049 162.39430008 82.04694049 159.375 81.6875 C157 81 157 81 156 80 C155.5625 77.75 155.5625 77.75 156 75 C157.84466837 73.01550254 159.79240863 71.60970204 162 70 C159.14206684 67.14206684 156.85334416 67.59200059 152.875 67.375 C151.59367188 67.30023438 150.31234375 67.22546875 148.9921875 67.1484375 C148.00476563 67.09945312 147.01734375 67.05046875 146 67 C146.24609375 65.140625 146.24609375 65.140625 147 63 C148.84765625 61.734375 148.84765625 61.734375 151.0625 60.75 C151.79597656 60.41484375 152.52945313 60.0796875 153.28515625 59.734375 C153.85105469 59.49203125 154.41695312 59.2496875 155 59 C155 58.34 155 57.68 155 57 C153.7934375 56.319375 153.7934375 56.319375 152.5625 55.625 C150 54 150 54 149.1875 51.8125 C149.125625 51.214375 149.06375 50.61625 149 50 C149.66 50 150.32 50 151 50 C150.67 49.01 150.34 48.02 150 47 C147.69 46.67 145.38 46.34 143 46 C140.7226499 48.81509993 140.7226499 48.81509993 141 52 C139.68 51.67 138.36 51.34 137 51 C137.59256416 44.28427287 142.31375994 40.52170414 147.125 36.375 C147.78757812 35.82585937 148.45015625 35.27671875 149.1328125 34.7109375 C152.29600482 31.81244747 153.83920775 30.11214639 154.46875 25.7578125 C154.84953217 18.1143539 154.84953217 18.1143539 151.875 11.375 C150.92625 10.59125 149.9775 9.8075 149 9 C147.7934375 7.824375 147.7934375 7.824375 146.5625 6.625 C136.49965415 2.03492996 125.7522812 4.6857891 117.25 11.0625 Z " fill="#272727" transform="translate(135,59)"/>
<path d="M0 0 C0.33 0 0.66 0 1 0 C1.28875 0.94875 1.5775 1.8975 1.875 2.875 C2.76825109 6.05211578 2.76825109 6.05211578 5 8 C6.69054463 8.69610661 8.38136077 9.39156951 10.07421875 10.08203125 C12.08468394 11.04036658 13.72176417 12.16331257 15.5 13.5 C18.82650026 15.99676097 22.12794997 17.49859285 26 19 C23.89928886 23.37821479 21.3520145 27.47847808 18.8515625 31.63671875 C17.44385455 34.19375788 16.2431475 36.65591568 15.08984375 39.32421875 C13.00940018 44.10933956 10.52631668 48.59942241 7.9375 53.125 C4.32465161 59.44882675 0.8987548 65.52481479 -0.9375 72.625 C-3.37561008 80.36958496 -9.13901525 83.40418269 -16 87 C-20.66913381 89.20304201 -24.77896528 90.3915776 -30 90 C-30 89.34 -30 88.68 -30 88 C-28.515 87.01 -28.515 87.01 -27 86 C-27 84.68 -27 83.36 -27 82 C-27.9075 81.7525 -28.815 81.505 -29.75 81.25 C-33.30893 79.88118077 -34.83480141 79.12750908 -37 76 C-37.38489014 73.69065917 -37.56182608 71.46100799 -37.62890625 69.12109375 C-38.09198477 66.47423442 -38.91692633 65.64662014 -41 64 C-43.59915538 62.80972016 -43.59915538 62.80972016 -46 62 C-46 61.67 -46 61.34 -46 61 C-45.05680908 60.98541748 -44.11361816 60.97083496 -43.1418457 60.95581055 C-39.62841339 60.89460394 -36.11574554 60.82042492 -32.6027832 60.73754883 C-31.08498379 60.70438084 -29.56706344 60.67632368 -28.04907227 60.65356445 C-25.86161981 60.61986722 -23.67526736 60.56754796 -21.48828125 60.51171875 C-20.17384033 60.48553467 -18.85939941 60.45935059 -17.50512695 60.43237305 C-13.83761809 59.97996947 -11.92711345 59.20390471 -9 57 C-7.41679335 54.89565079 -7.41679335 54.89565079 -6.3125 52.4375 C-5.91675781 51.65246094 -5.52101562 50.86742187 -5.11328125 50.05859375 C-1.34922242 39.71733739 -1.3826156 28.74833339 -0.875 17.875 C-0.78844111 16.13798678 -0.70120712 14.40100706 -0.61328125 12.6640625 C-0.40106616 8.44305447 -0.1980015 4.22169766 0 0 Z " fill="#F7F7F7" transform="translate(181,370)"/>
<path d="M0 0 C0.83354004 0.00692871 1.66708008 0.01385742 2.52587891 0.02099609 C10.78189748 0.30998069 17.40574385 2.71517592 23.6484375 8.25390625 C25.94649961 10.78685316 26.8125 12.1590912 26.8125 15.625 C22.81000258 16.68467236 18.96310965 17.54904113 14.8125 17.625 C12.24104483 15.97881457 11.46133584 14.30435824 9.8125 11.625 C6.80127068 9.67424709 4.10368828 9.2795675 0.5625 9 C-0.32953125 8.92523438 -1.2215625 8.85046875 -2.140625 8.7734375 C-3.15382813 8.69996094 -3.15382813 8.69996094 -4.1875 8.625 C-3.85084085 11.10748124 -3.85084085 11.10748124 -2.1875 13.625 C0.05121161 14.61089415 2.25137625 15.25034916 4.62109375 15.8515625 C7.08616716 16.72158841 8.23822349 17.54958724 9.8125 19.625 C9.8125 22.625 9.8125 22.625 8.1328125 24.34375 C7.40835938 24.9315625 6.68390625 25.519375 5.9375 26.125 C3.33055546 28.25540629 1.70581428 29.78502857 -0.1875 32.625 C-0.25629985 34.24867657 -0.27222619 35.87501845 -0.25 37.5 C-0.49930497 40.78411356 -0.62958214 42.12264713 -3.109375 44.35546875 C-6.69865345 46.35537717 -10.17641409 47.73466743 -14.1875 48.625 C-18.59515111 38.76127592 -20.3362449 29.56308046 -20.5625 18.8125 C-20.58860352 18.09505615 -20.61470703 17.3776123 -20.64160156 16.63842773 C-20.65855163 11.44262712 -19.61354298 8.51117496 -16.1875 4.625 C-10.83231493 0.68600779 -6.56569578 -0.08860053 0 0 Z " fill="#F5F5F5" transform="translate(112.1875,60.375)"/>
<path d="M0 0 C0 0.99 0 1.98 0 3 C-1.98 3.99 -3.96 4.98 -6 6 C-6 6.33 -6 6.66 -6 7 C-3.03 7.495 -3.03 7.495 0 8 C0.33 9.32 0.66 10.64 1 12 C-1.01822917 11.96744792 -3.03645833 11.93489583 -5.0546875 11.90234375 C-7.08185404 11.87350758 -7.08185404 11.87350758 -9 13 C-9 16.63 -9 20.26 -9 24 C-10.32 24.33 -11.64 24.66 -13 25 C-15.79137262 20.81294107 -16.04545554 16.977382 -16 12 C-14.35688032 6.10409996 -11.83924832 3.42780089 -7 0 C-3.86650268 -1.04449911 -3.01031744 -0.93423645 0 0 Z " fill="#363636" transform="translate(272,75)"/>
<path d="M0 0 C0.99 0.33 1.98 0.66 3 1 C4.15635867 3.43924004 5.13890385 5.78737395 6.0625 8.3125 C7.03194698 10.87897046 8.01291697 13.440183 9 16 C9.28488281 16.78246094 9.56976563 17.56492187 9.86328125 18.37109375 C11.54078247 20.7749357 13.3352942 21.03469082 16.125 21.75 C17.03507812 21.99234375 17.94515625 22.2346875 18.8828125 22.484375 C19.58148438 22.65453125 20.28015625 22.8246875 21 23 C20.67 24.32 20.34 25.64 20 27 C12.57142857 26 12.57142857 26 9 25 C8.67 23.68 8.34 22.36 8 21 C6.576875 21.99 6.576875 21.99 5.125 23 C2 25 2 25 0 25 C0 25.66 0 26.32 0 27 C-1.32 27 -2.64 27 -4 27 C-3.875 24.6875 -3.875 24.6875 -3 22 C0.0625 20.1875 0.0625 20.1875 3 19 C3.41750677 13.15490523 2.80819792 9.79273257 -0.22265625 4.76171875 C-1 3 -1 3 0 0 Z " fill="#313131" transform="translate(82,252)"/>
<path d="M0 0 C2.125 0.875 2.125 0.875 3 2.9375 C3.15007735 6.4643178 2.61172247 6.80729392 0.3125 9.3125 C-0.24308594 9.9003125 -0.79867187 10.488125 -1.37109375 11.09375 C-3.37657716 13.4690758 -4.14517848 15.88273177 -4.875 18.875 C-8.25 19.5 -8.25 19.5 -11.875 19.875 C-12.535 19.215 -13.195 18.555 -13.875 17.875 C-13.53010434 11.83932587 -9.86518753 6.73797249 -5.9375 2.375 C-2.875 -0.125 -2.875 -0.125 0 0 Z " fill="#2E2E2E" transform="translate(94.875,227.125)"/>
<path d="M0 0 C0.99 0 1.98 0 3 0 C1.46561034 4.18820825 -1.59920548 6.31399906 -5.0625 8.875 C-5.64668701 9.3169873 -6.23087402 9.75897461 -6.83276367 10.21435547 C-10.08226758 12.65159504 -13.38427855 14.94340453 -16.8125 17.125 C-20.87255625 19.72224186 -23.97325172 22.87571576 -27.17578125 26.4609375 C-29 28 -29 28 -33 28 C-32.48538729 23.99844254 -30.74648067 22.6049243 -27.625 20.1875 C-23.14748466 16.73834411 -18.48891782 13.70798035 -13.6875 10.734375 C-8.81777215 7.5917018 -4.10358514 4.10358514 0 0 Z " fill="#CACACA" transform="translate(219,174)"/>
<path d="M0 0 C4.11000456 0.54800061 5.76600249 2.59930227 8.8125 5.375 C9.4725 5.705 10.1325 6.035 10.8125 6.375 C10.8125 8.355 10.8125 10.335 10.8125 12.375 C8.8125 13.25 8.8125 13.25 5.8125 13.375 C2.72226251 11.80083767 0.19913619 9.88959104 -2.1875 7.375 C-3.25 4.0625 -3.25 4.0625 -3.1875 1.375 C-2.1875 0.375 -2.1875 0.375 0 0 Z " fill="#262626" transform="translate(63.1875,237.625)"/>
<path d="M0 0 C0.66 0 1.32 0 2 0 C0.56175655 4.61083931 -2.07892031 7.54536731 -5.375 10.9375 C-9.83863463 15.64631443 -14.17081398 20.43271014 -18.375 25.375 C-18.8498584 25.9330835 -19.3247168 26.49116699 -19.81396484 27.06616211 C-20.27496582 27.60893799 -20.7359668 28.15171387 -21.2109375 28.7109375 C-21.66436523 29.24170898 -22.11779297 29.77248047 -22.58496094 30.31933594 C-23.5985625 31.52320639 -24.59472555 32.74184381 -25.57910156 33.96972656 C-26.36365723 34.93217285 -26.36365723 34.93217285 -27.1640625 35.9140625 C-27.63537598 36.50396973 -28.10668945 37.09387695 -28.59228516 37.70166016 C-30 39 -30 39 -33 39 C-31.94419161 36.31248775 -31.05925438 35.04543859 -28.73828125 33.265625 C-25.60570229 30.67376224 -23.29447808 27.73084786 -20.875 24.5 C-16.33817444 18.57334753 -11.52556871 13.05292347 -6.41015625 7.62109375 C-3.95789684 5.02976146 -3.95789684 5.02976146 -1.80859375 2.16015625 C-1.21175781 1.44730469 -0.61492187 0.73445312 0 0 Z " fill="#D9D9D9" transform="translate(110,166)"/>
<path d="M0 0 C0 0.99 0 1.98 0 3 C-1.40359348 4.09548759 -2.80779443 5.19020466 -4.21484375 6.28125 C-7.21708835 9.17181373 -9.16087816 12.72428463 -11.2890625 16.28125 C-13 19 -13 19 -15.203125 21.67578125 C-17.32951399 24.42621919 -17.18220806 25.62915094 -17 29 C-19 31 -19 31 -21.625 31.125 C-22.40875 31.08375 -23.1925 31.0425 -24 31 C-23.3955497 27.53603481 -22.11113018 25.61985346 -19.875 22.9375 C-17.13547802 19.54384726 -14.76555584 16.10137804 -12.5 12.375 C-4.78955696 0 -4.78955696 0 0 0 Z " fill="#D0D0D0" transform="translate(86,173)"/>
<path d="M0 0 C0 0.99 0 1.98 0 3 C-1.79296875 4.68359375 -1.79296875 4.68359375 -4.1875 6.4375 C-4.96480469 7.01371094 -5.74210937 7.58992187 -6.54296875 8.18359375 C-8.18498061 9.39748169 -9.82821733 10.60971449 -11.47265625 11.8203125 C-14.49885953 14.43023743 -16.83290449 17.27139435 -19.25 20.4375 C-19.69601563 20.99759766 -20.14203125 21.55769531 -20.6015625 22.13476562 C-23.08928186 25.36503151 -24.60260261 27.9113922 -25 32 C-26.65 32 -28.3 32 -30 32 C-27.90517033 26.01325327 -24.02486489 21.80624892 -20 17 C-19.44054688 16.30390625 -18.88109375 15.6078125 -18.3046875 14.890625 C-5.97525 0 -5.97525 0 0 0 Z " fill="#D2D2D2" transform="translate(80,170)"/>
<path d="M0 0 C0 0.99 0 1.98 0 3 C-1.65234375 4.5078125 -1.65234375 4.5078125 -3.9375 6.125 C-11.59674915 11.85739402 -17.86496615 18.05849473 -22.7109375 26.34765625 C-23.13632812 26.89292969 -23.56171875 27.43820313 -24 28 C-24.99 28 -25.98 28 -27 28 C-26.10076138 21.93013934 -21.13998863 18.12845663 -17 14 C-15.85020549 12.81772447 -14.70185304 11.63404535 -13.5546875 10.44921875 C-12.32824207 9.19519799 -11.10167761 7.94129364 -9.875 6.6875 C-9.25496094 6.04232422 -8.63492188 5.39714844 -7.99609375 4.73242188 C-7.39667969 4.12333984 -6.79726562 3.51425781 -6.1796875 2.88671875 C-5.37120361 2.05466919 -5.37120361 2.05466919 -4.54638672 1.20581055 C-3 0 -3 0 0 0 Z " fill="#E3E3E3" transform="translate(73,163)"/>
<path d="M0 0 C0.99 0 1.98 0 3 0 C1.70923467 3.872296 0.05605704 4.64594892 -3.25 7 C-8.58638265 10.86725048 -13.63985798 14.98282755 -18.63378906 19.28125 C-21.35644682 21.62229074 -24.09356642 23.890041 -27 26 C-25.59882154 17.94514404 -16.33326262 12.75551263 -10.1875 8.1875 C-8.68005508 7.05723487 -7.17350184 5.92577923 -5.66796875 4.79296875 C-5.01078857 4.3033667 -4.3536084 3.81376465 -3.67651367 3.30932617 C-1.87916776 1.96053896 -1.87916776 1.96053896 0 0 Z " fill="#CCCCCC" transform="translate(208,171)"/>
<path d="M0 0 C-0.58852436 3.24751995 -1.57988488 4.96716699 -3.8125 7.375 C-5.85869406 9.63606885 -7.56964928 11.81633126 -9.125 14.4375 C-9.74375 15.283125 -10.3625 16.12875 -11 17 C-12.32 17 -13.64 17 -15 17 C-14.47741957 12.58973792 -12.93147994 10.21008836 -10.125 6.8125 C-9.42632812 5.95269531 -8.72765625 5.09289062 -8.0078125 4.20703125 C-5.3907213 1.33026758 -3.96678628 0 0 0 Z " fill="#EAEAEA" transform="translate(64,163)"/>
<path d="M0 0 C-1.15372366 4.90332554 -3.86178066 6.52089455 -7.765625 9.2421875 C-11.08279473 11.851849 -13.65179598 15.00196886 -16.3359375 18.2421875 C-16.88507813 18.82226562 -17.43421875 19.40234375 -18 20 C-18.66 20 -19.32 20 -20 20 C-19.42018537 16.38444882 -18.06580467 14.68076648 -15.5078125 12.109375 C-14.80269531 11.40039062 -14.09757813 10.69140625 -13.37109375 9.9609375 C-12.62988281 9.23132813 -11.88867188 8.50171875 -11.125 7.75 C-10.39152344 7.00492188 -9.65804687 6.25984375 -8.90234375 5.4921875 C-7.84080078 4.43644531 -7.84080078 4.43644531 -6.7578125 3.359375 C-6.1095752 2.71452148 -5.46133789 2.06966797 -4.79345703 1.40527344 C-3 0 -3 0 0 0 Z " fill="#E3E3E3" transform="translate(199,169)"/>
<path d="M0 0 C-1.14355297 3.43065892 -1.78960109 3.7610872 -4.6875 5.6875 C-8.59090332 8.46465254 -11.06740925 11.46990413 -13.67578125 15.4609375 C-14.33126953 16.22277344 -14.33126953 16.22277344 -15 17 C-15.99 17 -16.98 17 -18 17 C-17.49273837 12.71871184 -14.9805656 10.44576765 -12.125 7.375 C-11.24070313 6.41335937 -10.35640625 5.45171875 -9.4453125 4.4609375 C-6.08211692 1.07625186 -4.87028066 0 0 0 Z " fill="#D9D9D9" transform="translate(193,167)"/>
<path d="M0 0 C-1.56048464 4.05726008 -4.4835557 7.47623615 -8 10 C-9.32 10 -10.64 10 -12 10 C-11.43351673 6.52556925 -10.35584027 5.01266113 -7.6875 2.75 C-7.09324219 2.22921875 -6.49898437 1.7084375 -5.88671875 1.171875 C-4 0 -4 0 0 0 Z " fill="#CFCFCF" transform="translate(198,192)"/>
<path d="M0 0 C0.99 0.33 1.98 0.66 3 1 C4.03865096 3.36695387 4.89577096 5.61555495 5.6875 8.0625 C5.91244141 8.72572266 6.13738281 9.38894531 6.36914062 10.07226562 C6.92334719 11.71130207 7.46306085 13.35522593 8 15 C7.34 15 6.68 15 6 15 C5.01 16.485 5.01 16.485 4 18 C3.89042969 17.41992188 3.78085938 16.83984375 3.66796875 16.2421875 C2.88307524 12.37515119 2.09093381 9.18186761 0.3125 5.625 C-0.120625 4.75875 -0.55375 3.8925 -1 3 C-0.67 2.01 -0.34 1.02 0 0 Z " fill="#515151" transform="translate(82,252)"/>
<path d="M0 0 C0.66 1.32 1.32 2.64 2 4 C-2.29785078 9.03163018 -6.63425542 14.02718443 -11 19 C-11.99 18.34 -12.98 17.68 -14 17 C-13.01 17 -12.02 17 -11 17 C-10.7525 16.46375 -10.505 15.9275 -10.25 15.375 C-7.73559431 10.59762918 -4.79776375 6.79776375 -1 3 C-0.67 2.01 -0.34 1.02 0 0 Z " fill="#464646" transform="translate(64,163)"/>
<path d="M0 0 C0.66 0.99 1.32 1.98 2 3 C1.360625 3.721875 0.72125 4.44375 0.0625 5.1875 C-1.98673535 7.98191184 -2.61332946 9.61663274 -3 13 C-4.65 13 -6.3 13 -8 13 C-6.40956621 7.91061189 -3.2553049 4.12543357 0 0 Z " fill="#C7C7C7" transform="translate(58,189)"/>
<path d="M0 0 C0 0.99 0 1.98 0 3 C-1.43803649 4.27462325 -2.88470014 5.54283424 -4.3984375 6.7265625 C-6.4233126 8.33658514 -8.20733715 10.13838858 -10 12 C-9.848048 6.98558397 -7.07298671 4.66645254 -3.69140625 1.35546875 C-2 0 -2 0 0 0 Z " fill="#D6D6D6" transform="translate(86,173)"/>
<path d="M0 0 C0.66 0 1.32 0 2 0 C0.5140084 4.59306496 -1.85014682 7.43569245 -5 11 C-5.99 10.34 -6.98 9.68 -8 9 C-6.71520959 7.49410612 -5.42195918 5.99542625 -4.125 4.5 C-3.04605469 3.24703125 -3.04605469 3.24703125 -1.9453125 1.96875 C-1.30335937 1.3190625 -0.66140625 0.669375 0 0 Z " fill="#D2D2D2" transform="translate(110,166)"/>
<path d="M0 0 C1.485 0.99 1.485 0.99 3 2 C3.328125 4.0234375 3.328125 4.0234375 3.25 6.375 C3.22679687 7.53128906 3.22679687 7.53128906 3.203125 8.7109375 C3.00838739 10.9054806 2.59915017 12.88364696 2 15 C1.34 14.67 0.68 14.34 0 14 C0 9.38 0 4.76 0 0 Z " fill="#E4E4E4" transform="translate(170,358)"/>
<path d="M0 0 C0.66 0.33 1.32 0.66 2 1 C-1.96 4.96 -5.92 8.92 -10 13 C-10.66 12.67 -11.32 12.34 -12 12 C-8.57833482 7.29521038 -4.42094803 3.72346836 0 0 Z " fill="#3F3F3F" transform="translate(74,176)"/>
<path d="M0 0 C-1.47692308 4.67692308 -1.47692308 4.67692308 -4.125 6.3125 C-5.053125 6.6528125 -5.053125 6.6528125 -6 7 C-6.66 6.34 -7.32 5.68 -8 5 C-3.375 0 -3.375 0 0 0 Z " fill="#CFCFCF" transform="translate(199,169)"/>
<path d="M0 0 C0.33 0 0.66 0 1 0 C1 1.65 1 3.3 1 5 C2.32 5.33 3.64 5.66 5 6 C1.01811282 7.71767682 -2.96479403 9.41037341 -7 11 C-6.21625 10.29875 -5.4325 9.5975 -4.625 8.875 C-1.91639182 5.90842914 -0.98277285 3.8417484 0 0 Z " fill="#BFBFBF" transform="translate(324,437)"/>
<path d="M0 0 C0.66 0.99 1.32 1.98 2 3 C0.1875 6 0.1875 6 -2 9 C-2.99 9 -3.98 9 -5 9 C-4.42647107 5.12867972 -2.51295648 2.91827204 0 0 Z " fill="#D6D6D6" transform="translate(51,182)"/>
<path d="M0 0 C0.58394531 0.21140625 1.16789062 0.4228125 1.76953125 0.640625 C1.76953125 0.970625 1.76953125 1.300625 1.76953125 1.640625 C0.40828125 2.011875 0.40828125 2.011875 -0.98046875 2.390625 C-4.35819572 3.68975076 -5.80565928 5.04261485 -8.23046875 7.640625 C-8.89046875 7.640625 -9.55046875 7.640625 -10.23046875 7.640625 C-9.14947399 4.39764071 -8.57420259 3.82449974 -5.91796875 1.890625 C-5.32371094 1.44203125 -4.72945313 0.9934375 -4.1171875 0.53125 C-2.23046875 -0.359375 -2.23046875 -0.359375 0 0 Z " fill="#4C4C4C" transform="translate(480.23046875,307.359375)"/>
<path d="M0 0 C-1.38877354 3.35620271 -2.91677965 5.07298728 -6 7 C-6.66 7 -7.32 7 -8 7 C-6.13932792 2.84926997 -4.83061881 0 0 0 Z " fill="#DCDCDC" transform="translate(222,174)"/>
<path d="M0 0 C0.99 0.33 1.98 0.66 3 1 C1.73742767 2.17560179 0.46462916 3.34022865 -0.8125 4.5 C-1.87404297 5.47453125 -1.87404297 5.47453125 -2.95703125 6.46875 C-5 8 -5 8 -8 8 C-3.375 2.25 -3.375 2.25 0 0 Z " fill="#D9D9D9" transform="translate(61,163)"/>
<path d="M0 0 C0.66 0.33 1.32 0.66 2 1 C-0.64 3.64 -3.28 6.28 -6 9 C-6.33 8.34 -6.66 7.68 -7 7 C-2.25 1.125 -2.25 1.125 0 0 Z " fill="#3F3F3F" transform="translate(302,422)"/>
<path d="M0 0 C0.99 0.33 1.98 0.66 3 1 C1.02 3.31 -0.96 5.62 -3 8 C-3.99 7.67 -4.98 7.34 -6 7 C-4.02 4.69 -2.04 2.38 0 0 Z " fill="#C9C9C9" transform="translate(91,188)"/>
<path d="M0 0 C0 3.58912412 -0.66436554 4.10857029 -3 6.6875 C-3.556875 7.31011719 -4.11375 7.93273437 -4.6875 8.57421875 C-5.120625 9.04472656 -5.55375 9.51523438 -6 10 C-6.33 9.01 -6.66 8.02 -7 7 C-4.69 4.69 -2.38 2.38 0 0 Z " fill="#DCDCDC" transform="translate(66,181)"/>
<path d="M0 0 C0.66 0.33 1.32 0.66 2 1 C-0.97 3.97 -3.94 6.94 -7 10 C-7 6.04435836 -5.59478606 4.89133304 -3 2 C-2.01 1.34 -1.02 0.68 0 0 Z " fill="#4D4D4D" transform="translate(96,58)"/>
<path d="M0 0 C0 0.99 0 1.98 0 3 C-2.5 4.6875 -2.5 4.6875 -5 6 C-5.66 5.34 -6.32 4.68 -7 4 C-3.375 0 -3.375 0 0 0 Z " fill="#D2D2D2" transform="translate(73,163)"/>
<path d="M0 0 C2.97 0.495 2.97 0.495 6 1 C5.01 1.33 4.02 1.66 3 2 C2.67 3.98 2.34 5.96 2 8 C1.67 6.68 1.34 5.36 1 4 C0.34 4 -0.32 4 -1 4 C-0.67 2.68 -0.34 1.36 0 0 Z " fill="#6F6F6F" transform="translate(27,148)"/>
<path d="M0 0 C0.66 0.33 1.32 0.66 2 1 C-0.31 3.64 -2.62 6.28 -5 9 C-5.66 8.67 -6.32 8.34 -7 8 C-5.08864614 4.46399535 -3.37357234 2.21027154 0 0 Z " fill="#D0D0D0" transform="translate(100,62)"/>
<path d="M0 0 C1.98 0.495 1.98 0.495 4 1 C3.67 2.32 3.34 3.64 3 5 C1.68 5 0.36 5 -1 5 C-0.67 3.35 -0.34 1.7 0 0 Z " fill="#464646" transform="translate(79,274)"/>
<path d="M0 0 C-1.49097658 3.7952131 -3.75700849 5.61042731 -7 8 C-6.44414399 4.1090079 -4.34122117 0 0 0 Z " fill="#F0F0F0" transform="translate(198,192)"/>
<path d="M0 0 C0.66 0.99 1.32 1.98 2 3 C0.02 5.31 -1.96 7.62 -4 10 C-4.99 9.34 -5.98 8.68 -7 8 C-6.01 8 -5.02 8 -4 8 C-3.71125 7.4225 -3.4225 6.845 -3.125 6.25 C-2.08333333 4.16666667 -1.04166667 2.08333333 0 0 Z " fill="#7A7A7A" transform="translate(57,172)"/>
<path d="M0 0 C0.66 0.33 1.32 0.66 2 1 C-0.64 3.64 -3.28 6.28 -6 9 C-6 6 -6 6 -3.5625 3.375 C-2.716875 2.59125 -1.87125 1.8075 -1 1 C-0.67 0.67 -0.34 0.34 0 0 Z " fill="#CECECE" transform="translate(256,67)"/>
<path d="M0 0 C0.66 0 1.32 0 2 0 C0.34832443 3.5786304 -1.78286492 6.74820188 -4 10 C-4.33 9.34 -4.66 8.68 -5 8 C-4.2578125 6.30859375 -4.2578125 6.30859375 -3.125 4.4375 C-2.75632813 3.81746094 -2.38765625 3.19742188 -2.0078125 2.55859375 C-1 1 -1 1 0 0 Z " fill="#CECECE" transform="translate(55,215)"/>
<path d="M0 0 C1.32 0 2.64 0 4 0 C3 3 3 3 0 5 C-0.99 4.67 -1.98 4.34 -3 4 C-1.75 2 -1.75 2 0 0 Z " fill="#E8E8E8" transform="translate(189,167)"/>
<path d="M0 0 C1.0725 0.103125 2.145 0.20625 3.25 0.3125 C3.25 0.6425 3.25 0.9725 3.25 1.3125 C2.321875 1.580625 1.39375 1.84875 0.4375 2.125 C-2.51240366 3.22398371 -3.80615186 3.93668561 -5.75 6.3125 C-6.41 5.9825 -7.07 5.6525 -7.75 5.3125 C-5.36605526 1.49818842 -4.61542062 0.38461838 0 0 Z " fill="#4D4D4D" transform="translate(109.75,326.6875)"/>
<path d="M0 0 C0 0.99 0 1.98 0 3 C-2.5 4.6875 -2.5 4.6875 -5 6 C-5.66 5.34 -6.32 4.68 -7 4 C-2.25 0 -2.25 0 0 0 Z " fill="#C0C0C0" transform="translate(80,170)"/>
<path d="M0 0 C-0.598125 0.268125 -1.19625 0.53625 -1.8125 0.8125 C-4.04267613 1.88022403 -4.04267613 1.88022403 -5.5625 3.625 C-7 5 -7 5 -10 5 C-7.56494443 0.12988886 -5.37196903 -0.35813127 0 0 Z " fill="#424242" transform="translate(494,407)"/>
</svg>
